<svg width="24" height="24" viewBox="0 0 24 24" fill="none" xmlns="http://www.w3.org/2000/svg">
<path d="M23.0748 16.2748C20.9267 17.2465 18.5334 17.5405 16.214 17.1177C13.8945 16.6949 11.7589 15.5753 10.0918 13.9082C8.42464 12.241 7.30509 10.1055 6.88228 7.78601C6.45946 5.46654 6.75347 3.0733 7.72512 0.92514C6.01494 1.69801 4.51777 2.87422 3.36208 4.35288C2.20638 5.83154 1.42666 7.56849 1.08979 9.41473C0.752928 11.261 0.868984 13.1614 1.428 14.9529C1.98702 16.7444 2.97232 18.3736 4.29935 19.7006C5.62639 21.0276 7.25556 22.0129 9.04708 22.572C10.8386 23.131 12.739 23.247 14.5852 22.9102C16.4315 22.5733 18.1684 21.7936 19.6471 20.6379C21.1257 19.4822 22.302 17.985 23.0748 16.2748Z" fill="#CC2D4A"/>
</svg>
